<svg version="1.1" id="Layer_1" xmlns:x="ns_extend;" xmlns:i="ns_ai;" xmlns:graph="ns_graphs;" xmlns="http://www.w3.org/2000/svg" xmlns:xlink="http://www.w3.org/1999/xlink" x="0px" y="0px" viewBox="0 0 293.8 65" style="enable-background:new 0 0 293.8 65;" xml:space="preserve">
 <style type="text/css">
  .st0{fill:#FFFFFF;}
	.st1{fill:#FF6333;}
 </style>
 <metadata>
  <sfw xmlns="ns_sfw;">
   <slices>
   </slices>
   <sliceSourceBounds bottomLeftOrigin="true" height="65" width="293.8" x="-149.2" y="0.1">
   </sliceSourceBounds>
  </sfw>
 </metadata>
 <g>
  <path class="st0" d="M166.4,34.2c-0.2-2-1.2-3.8-2.7-5.1c-1.5-1.3-3.5-1.9-5.5-1.8c-2-0.1-4,0.5-5.6,1.8c-1.6,1.3-2.6,3.1-2.9,5.1
		H166.4z M174,39.7h-24.5c0.3,2.1,1.5,3.9,3.1,5.2c1.7,1.3,3.7,1.8,5.8,1.6c1.6,0,3.2-0.3,4.7-1c1.5-0.7,2.8-1.8,3.8-3.1l5.2,4
		c-1.6,2.3-3.7,4.2-6.2,5.4c-2.5,1.3-5.2,1.9-8,1.8c-4.4,0-8.6-1.8-11.7-4.9s-4.8-7.3-4.8-11.8c0-4.4,1.7-8.6,4.8-11.8
		s7.3-4.9,11.7-4.9c2.1-0.1,4.3,0.3,6.3,1.1c2,0.8,3.8,2,5.3,3.6c1.5,1.5,2.7,3.4,3.4,5.4c0.8,2,1.1,4.2,1,6.3
		C174,37.6,174,38.6,174,39.7">
  </path>
  <path class="st0" d="M211.5,35v17.7h-7.8V35.5c0-5.1-3-7.8-6.5-7.8c-1.1-0.1-2.2,0.1-3.2,0.5c-1,0.4-1.9,1-2.7,1.8
		c-0.8,0.8-1.3,1.7-1.7,2.7c-0.4,1-0.5,2.1-0.4,3.2v16.8h-7.8V21.1h7.8v5c0.9-1.8,2.3-3.3,4.1-4.3c1.7-1,3.7-1.6,5.7-1.5
		C207,20.3,211.5,25.8,211.5,35z">
  </path>
  <path class="st0" d="M243.6,36.9c0-2.4-1-4.8-2.7-6.5c-1.7-1.7-4-2.7-6.4-2.8c-2.5,0-4.8,1-6.5,2.7c-1.7,1.7-2.7,4.1-2.7,6.6
		c0,2.5,1,4.8,2.7,6.6c1.7,1.7,4.1,2.7,6.5,2.7c2.4,0,4.7-1,6.4-2.8C242.7,41.7,243.6,39.3,243.6,36.9L243.6,36.9z M243.6,21.1h7.8
		v31.6h-7.8v-5c-1.2,1.8-2.8,3.3-4.7,4.3s-4,1.5-6.2,1.5c-8.4,0-15.1-6.8-15.1-16.7s6.5-16.6,15.4-16.6c2-0.1,4.1,0.4,5.9,1.3
		c1.8,0.9,3.4,2.3,4.6,3.9L243.6,21.1z">
  </path>
  <path class="st0" d="M283.7,10.9c-0.1-1,0.2-2,0.7-2.9c0.5-0.9,1.3-1.6,2.2-2c0.9-0.4,2-0.6,3-0.4c1,0.2,1.9,0.6,2.7,1.3
		c0.7,0.7,1.3,1.6,1.5,2.6c0.2,1,0.1,2-0.2,3c-0.4,1-1,1.8-1.9,2.4c-0.8,0.6-1.8,0.9-2.8,0.9c-0.7,0-1.3-0.1-1.9-0.3
		c-0.6-0.2-1.2-0.6-1.6-1c-0.5-0.4-0.9-1-1.1-1.6C283.8,12.2,283.7,11.5,283.7,10.9z M292.7,21.1v31.6h-7.8V27.4h-13.2v25.4h-7.8
		V27.4h-6v-6.2h6v-0.5c0-9.1,4.3-14.6,13.1-14.6h2v7.4h-1.1c-0.8-0.1-1.7,0-2.5,0.2c-0.8,0.3-1.5,0.7-2.1,1.4
		c-0.6,0.6-1,1.4-1.3,2.2c-0.3,0.8-0.3,1.7-0.2,2.5v1.4L292.7,21.1z">
  </path>
  <path class="st0" d="M134.5,8.3c-3.2,11.2-8.3,21.8-15,31.2c-6.7-9.5-11.7-20-14.9-31.2h-8.7c3.6,13.7,9.9,26.6,18.4,38
		c1.6,2.2,3.4,4.4,5.2,6.5c1.8-2.1,3.6-4.2,5.2-6.5c8.5-11.3,14.8-24.2,18.4-38H134.5z">
  </path>
  <path class="st1" d="M20.6,13.2c3.7,10.1,9.1,19.6,16,27.8l2.3,2.7l2.4-2.7c6.9-8.3,12.3-17.7,16-27.8h-7.9
		c-2.6,6.6-6.1,12.7-10.4,18.3c-4.3-5.6-7.7-11.8-10.3-18.3H20.6z">
  </path>
  <path class="st1" d="M53.4,0.1c-0.2,0.5-2,5.8-2.9,8h15.3c-5.3,14.7-13.2,28.3-23.2,40.2l-3.4,4l-3.4-4c-10-12-17.8-25.6-23.2-40.3
		h14.5c-1-2.2-2.7-7.5-2.9-8H0c7.9,21.5,19.4,41.5,34,59.1l5,5.9l5-5.9C58.7,41.5,70.2,21.5,78,0L53.4,0.1z">
  </path>
 </g>
</svg>