<svg xmlns="http://www.w3.org/2000/svg" xml:space="preserve" width="849.979" height="849.988" viewBox="0 0 224.89 224.893"><g transform="translate(-28.388 -43.514) scale(1.28278)"><path d="M109.786 33.922c-48.392 0-87.656 39.266-87.656 87.658s39.264 87.658 87.656 87.658 87.658-39.266 87.658-87.658-39.266-87.658-87.658-87.658zm0 3.305c46.607 0 84.353 37.746 84.353 84.353 0 46.607-37.746 84.354-84.353 84.354-46.607 0-84.354-37.747-84.354-84.354s37.747-84.353 84.354-84.353z" style="color:#000;fill:#000;paint-order:fill markers stroke"/><ellipse cx="109.692" cy="121.579" rx="84.455" ry="84.352" style="opacity:1;fill:#f8ffff;fill-opacity:1;stroke:none;stroke-width:7.74281;stroke-linejoin:miter;stroke-dasharray:none;stroke-opacity:1;paint-order:fill markers stroke"/><path d="M151.235 104.494c-9.192 0-14.496 4.29-14.496 10.156 0 12.55 20.085 9.23 20.085 13.741 0 1.673-2.402 2.285-4.468 2.285-3.76 0-7.352-1.018-8.911-3.718l-8.897 3.359s1.657 8.152 17.517 8.152c10.07 0 15.506-4.286 15.506-10.524 0-12.049-19.996-8.959-19.996-13.304 0-1.453 2.474-2.21 3.997-2.21 5.825 0 6.28 3.478 6.28 3.478l9.047-3.493c-.884-2.668-3.007-7.922-15.664-7.922zm30.827.23-11.214 4.032V137.4h11.214zm-126.967.56H36.951V137.4h11.214v-6.031l9.345-3.593c8.433-3.243 10.336-6.429 10.38-12.067.075-9.894-9.95-10.425-12.795-10.425zm66.884 0h-18.145V137.4h11.214v-6.031l9.345-3.593c8.433-3.243 10.336-6.429 10.38-12.067.076-9.894-9.95-10.425-12.794-10.425zm-50.941 0V137.4h28.329v-8.033H82.25v-4.143h13.264v-7.747H82.251v-4.16H99.21v-8.032zm-22.873 8.034h4.414c2.237 0 4.091.855 4.091 3.324 0 2.447-2.05 3.7-2.906 4.046l-5.599 2.266zm66.883 0h4.414c2.237 0 4.092.855 4.092 3.324 0 2.447-2.05 3.7-2.907 4.046l-5.599 2.266z" style="opacity:1;fill:#000;fill-opacity:1;stroke:none;stroke-width:9.92575;stroke-opacity:1;paint-order:fill markers stroke"/><path d="M149.114 147.359c-23.016 0-53.98 9.825-79.658 9.825-22.09 0-31.376-4.207-31.665-4.34 12.455 28.613 40.71 47.128 71.95 47.146 31.19-.02 59.41-18.48 71.894-47.028-.23-.083-15.554-5.603-32.52-5.603z" style="fill:#0f0e96;fill-opacity:1;stroke:none;stroke-width:7.1974;stroke-linejoin:miter;stroke-dasharray:none;stroke-opacity:1;paint-order:fill markers stroke"/><path d="M70.364 95.8c23.712 0 53.98-9.826 79.658-9.826 21.06 0 31.453 4.384 31.742 4.517-12.456-28.613-40.788-47.304-72.026-47.323-31.19.02-59.569 18.624-72.053 47.173.23.083 15.444 5.458 32.679 5.458z" style="fill:#ff1400;fill-opacity:1;stroke:none;stroke-width:7.1974;stroke-linejoin:miter;stroke-dasharray:none;stroke-opacity:1;paint-order:fill markers stroke"/></g></svg>